<?xml version="1.0" encoding="utf-8"?>
<!-- Generator: Adobe Illustrator 24.1.1, SVG Export Plug-In . SVG Version: 6.00 Build 0)  -->
<svg version="1.1" id="Layer_1" xmlns="http://www.w3.org/2000/svg" xmlns:xlink="http://www.w3.org/1999/xlink" x="0px" y="0px"
	 viewBox="0 0 1920 684.9" style="enable-background:new 0 0 1920 684.9;" xml:space="preserve">
<style type="text/css">
	.st0{fill:#5297AC;}
	.st1{fill:#FFFFFF;stroke:#000000;stroke-miterlimit:10;}
</style>
<g id="Layer_2_1_">
	<g id="Layer_1-2">
		<path class="st0" d="M1920,684.9H0c0-154.2,0-308.3,0-462.5C13.1,238,61.8,293.8,132,318c53.2,18.3,115.9,17.5,123,17.4
			c0.2,0,0.3,0,1.1,0c43-0.8,75.4-0.2,100,0.8c67.4,2.8,78,1.4,81.8-1.3c0.4-0.3,0.6-0.5,0.8-0.7c0,0,0.3-0.2,0.5-0.5
			c0.4-0.5,22.2-45.6,17.8-80.8c-8.9-71.7-131-139.8-122-163c15.6-40,429.9,35.2,437,159c3.1,53.8-70.4,77.2-61,118
			c16.4,71,250.3,109.7,472,66.4c323.9-63.3,523.2-281.1,571-236c33.6,31.7-70.8,174.7-35,207c28.4,25.7,125.6-36,196-86
			C1916.7,440.5,1918.3,562.7,1920,684.9z"/>
	</g>
</g>
<path class="st1" d="M586-147"/>
</svg>
