<?xml version="1.0" encoding="utf-8"?>
<!-- Generator: Adobe Illustrator 24.1.1, SVG Export Plug-In . SVG Version: 6.00 Build 0)  -->
<svg version="1.1" id="Layer_1" xmlns="http://www.w3.org/2000/svg" xmlns:xlink="http://www.w3.org/1999/xlink" x="0px" y="0px"
	 viewBox="0 0 1920 722.9" style="enable-background:new 0 0 1920 722.9;" xml:space="preserve">
<style type="text/css">
	.st0{fill:#A6C6C1;}
</style>
<path class="st0" d="M1920,722.9H0C0,631.3,0,539.6,0,448c61.6,50.6,146.3,108.5,195,81c64.1-36.1,4.8-185.5,75-237
	c51.2-37.6,132.7,5.2,329,93c328.2,146.8,431,175.3,436,166c7.1-13.2-207.5-107.6-194-193c6.5-41,63.1-62.8,126-86
	c317.4-116.9,541.3-199.3,563-153c9.4,19.9-30.9,37.8-74,121c-17.5,33.8-88.3,174.8-45,236c35.1,49.6,184.1,18.7,481-47.8
	c11.6-2.6,21.3-4.7,28-6.2C1920,522.3,1920,622.6,1920,722.9z"/>
<path class="st0" d="M2-300"/>
</svg>
