<?xml version="1.0" encoding="utf-8"?>
<!-- Generator: Adobe Illustrator 24.1.1, SVG Export Plug-In . SVG Version: 6.00 Build 0)  -->
<svg version="1.1" id="Layer_1" xmlns="http://www.w3.org/2000/svg" xmlns:xlink="http://www.w3.org/1999/xlink" x="0px" y="0px"
	 viewBox="0 0 1920 684.9" style="enable-background:new 0 0 1920 684.9;" xml:space="preserve">
<style type="text/css">
	.st0{fill:#5297AC;}
</style>
<g id="Layer_2_1_">
	<g id="Layer_1-2">
		<path class="st0" d="M1920,684.9H0c0-154.2,0-308.3,0-462.5c28.3,28.5,122.2,115.5,255,113c42.2-0.8,133.8-11.5,143-51
			c16-68.4-229.4-149.5-217-194c18.8-67.6,617,1.5,623,105c0.5,8.1-3,10.4-4,20c-8.1,79.3,197.9,208.9,383,218
			c297.6,14.6,521-283.1,571-236c33.6,31.7-70.8,174.7-35,207c28.4,25.7,125.6-36,196-86C1916.7,440.5,1918.3,562.7,1920,684.9z"/>
	</g>
</g>
</svg>
