<svg xmlns="http://www.w3.org/2000/svg" xmlns:xlink="http://www.w3.org/1999/xlink" width="832" height="878" viewBox="0 0 832 878"><defs><style>.a{fill:#ff6f61;}.b{fill:#fff;}.c{fill:#ff4701;}.d{fill:#ffa200;}.e{fill:rgba(66,255,0,0.61);}.f{fill:#2c2c2c;font-size:20px;font-family:SourceCodeProForPowerline-Medium, Source Code Pro for Powerline;font-weight:500;}.g{fill:rgba(15,76,129,0.64);font-size:18px;font-family:SegoeUI, Segoe UI;}.h{filter:url(#a);}</style><filter id="a" x="0" y="0" width="832" height="878" filterUnits="userSpaceOnUse"><feOffset dx="3" dy="3" input="SourceAlpha"/><feGaussianBlur stdDeviation="5" result="b"/><feFlood flood-opacity="0.161"/><feComposite operator="in" in2="b"/><feComposite in="SourceGraphic"/></filter></defs><g transform="translate(-221.318 -195.668)"><g class="h" transform="matrix(1, 0, 0, 1, 221.32, 195.67)"><rect class="a" width="802" height="848" rx="15" transform="translate(12 12)"/></g><rect class="b" width="802.3" height="802" rx="15" transform="translate(233.218 258.668)"/><ellipse class="c" cx="9.5" cy="10" rx="9.5" ry="10" transform="translate(252.218 226.668)"/><circle class="d" cx="10" cy="10" r="10" transform="translate(283.218 226.668)"/><circle class="e" cx="10" cy="10" r="10" transform="translate(315.218 226.668)"/><text class="f" transform="translate(296.218 296.668)"><tspan x="0" y="20">&lt;!DOCTYPE html&gt;</tspan><tspan x="0" y="45">&lt;html lang=&quot;en&quot;&gt;</tspan><tspan x="0" y="70" xml:space="preserve">    &lt;head&gt;</tspan><tspan x="0" y="95" xml:space="preserve">        &lt;title&gt;Wayne&apos;s Portfolio&lt;/title&gt;</tspan><tspan x="0" y="120" xml:space="preserve">        &lt;link rel=&quot;stylesheet&quot; href=&quot;./styles/index.css&quot;&gt;</tspan><tspan x="0" y="145" xml:space="preserve">        &lt;link rel=&quot;stylesheet&quot; href=&quot;./styles/navBar.css&quot;&gt;</tspan><tspan x="0" y="170" xml:space="preserve">        &lt;link rel=&quot;stylesheet&quot; href=&quot;https://</tspan><tspan x="0" y="195">use.typekit.net/gnr8vxg.css&quot;&gt;</tspan><tspan x="0" y="220" xml:space="preserve">        &lt;meta name=&quot;viewport&quot; content=&quot;width=device-width, </tspan><tspan x="0" y="245">initial-scale=1&quot;&gt;</tspan><tspan x="0" y="270" xml:space="preserve">    &lt;/head&gt;</tspan><tspan x="0" y="295" xml:space="preserve">    &lt;body&gt;</tspan><tspan x="0" y="320" xml:space="preserve">        &lt;!-- navigation --&gt;</tspan><tspan x="0" y="345" xml:space="preserve">        &lt;section class=&quot;navigation&quot;&gt;</tspan><tspan x="0" y="370" xml:space="preserve">            &lt;nav class=&quot;navBar1&quot;&gt;</tspan><tspan x="0" y="395" xml:space="preserve">                &lt;ul class=&quot;links&quot;&gt;</tspan><tspan x="0" y="420" xml:space="preserve">                    &lt;li&gt;&lt;a href=&quot;&quot;&gt;PORTFOLIO&lt;/a&gt;&lt;/li&gt;</tspan><tspan x="0" y="445" xml:space="preserve">                &lt;/ul&gt;</tspan><tspan x="0" y="470" xml:space="preserve">    </tspan><tspan x="0" y="495" xml:space="preserve">                &lt;div class=&quot;linkDiv&quot;&gt;</tspan><tspan x="0" y="520" xml:space="preserve">                    &lt;ul class=&quot;links&quot; id=&quot;links&quot;&gt;</tspan><tspan x="0" y="545" xml:space="preserve">                        &lt;li&gt;&lt;a href=&quot;&quot;&gt;ME&lt;/a&gt;&lt;/li&gt;</tspan><tspan x="0" y="570" xml:space="preserve">                        &lt;li&gt;&lt;a href=&quot;&quot;&gt;PROJECTS&lt;/a&gt;&lt;/li&gt;</tspan><tspan x="0" y="595" xml:space="preserve">                        &lt;li&gt;&lt;a href=&quot;&quot;&gt;HIRE ME&lt;/a&gt;&lt;/li&gt;</tspan><tspan x="0" y="620" xml:space="preserve">                    &lt;/ul&gt;</tspan><tspan x="0" y="645" xml:space="preserve">        </tspan><tspan x="0" y="670" xml:space="preserve">                    &lt;div class=&quot;navDash&quot;&gt;</tspan><tspan x="0" y="695" xml:space="preserve">                        &lt;div class=&quot;bar1&quot; id=&quot;bar1&quot;&gt;&lt;/div&gt;</tspan></text><text class="g" transform="translate(252.218 318.668)"><tspan x="0" y="0">1</tspan><tspan x="0" y="25">2</tspan><tspan x="0" y="50">3</tspan><tspan x="0" y="75">4</tspan><tspan x="0" y="100">5</tspan><tspan x="0" y="125">6</tspan><tspan x="0" y="150">7</tspan><tspan x="0" y="175">8</tspan><tspan x="0" y="200">9</tspan><tspan x="0" y="225">10</tspan><tspan x="0" y="250">11</tspan><tspan x="0" y="275">12</tspan><tspan x="0" y="300">13</tspan><tspan x="0" y="325">14</tspan><tspan x="0" y="350">15</tspan><tspan x="0" y="375">16</tspan><tspan x="0" y="400">17</tspan><tspan x="0" y="425">18</tspan><tspan x="0" y="450">19</tspan><tspan x="0" y="475">20</tspan><tspan x="0" y="500">21</tspan><tspan x="0" y="525">22</tspan><tspan x="0" y="550">23</tspan><tspan x="0" y="575">24</tspan><tspan x="0" y="600">25</tspan><tspan x="0" y="625">26</tspan><tspan x="0" y="650">27</tspan><tspan x="0" y="675">28</tspan><tspan x="0" y="700">29</tspan></text></g></svg>