<svg id="Layer_1" data-name="Layer 1" xmlns="http://www.w3.org/2000/svg" viewBox="0 0 550.83 684.26"><defs><style>.cls-1{fill:#1a1a1a;}.cls-2{fill:#ff6f61;}.cls-3{fill:#528eac;}.cls-4{fill:#5297ac;}.cls-5{opacity:0.57;}.cls-6,.cls-9{fill:#666;}.cls-7{fill:none;}.cls-8{opacity:0.61;}.cls-9{stroke:#000;stroke-miterlimit:10;stroke-width:3px;opacity:0.38;}.cls-10{opacity:0.12;}</style></defs><path class="cls-1" d="M692.22,581.05c-.9.35-4.06,4.78-5.57,5a14.81,14.81,0,0,1-3.62,0,7.76,7.76,0,0,1-2-4.7c-.1-1.92.19-7.28.56-5.64C684.4,578.25,689.45,578.45,692.22,581.05Z" transform="translate(-296.71 -147.82)"/><path class="cls-1" d="M575.54,561.78c.84.58,1.89-.29,2.84.91a24,24,0,0,1,2.24,4.86c-.35.66-2,1-4.8,2.36-2.11,1.07-6-.38-6.9-.35C570.49,565.84,574,565.49,575.54,561.78Z" transform="translate(-296.71 -147.82)"/><path class="cls-2" d="M401.06,520.59c-12.36,1-33.88-3.06-53,4-30.75,11.38-44.59,16.81-51.36,25.16,1.83-12.93,7.27-11.2,16.13-28.8a176.89,176.89,0,0,1,22.31-33.66Z" transform="translate(-296.71 -147.82)"/><path class="cls-2" d="M709,788.25c6.91,4.83,11.26,19.53,25.9,24.41,23.31,7.77,37.84,10.22,47.13,9.21-13.68,6.44-21.42,2.21-46.43,6.49a264.54,264.54,0,0,1-45.29,3.72Z" transform="translate(-296.71 -147.82)"/><path class="cls-2" d="M764.34,632.9c4.29-13.12-16.69-1.25,14.8-27.21S630.4,444.94,630.4,444.94L598,519Z" transform="translate(-296.71 -147.82)"/><path class="cls-2" d="M499.11,582.52c10.49,4.3,2.59-15.7,21.21,14.49S666.88,449.88,666.88,449.88l-74.56-15.71S488.62,578.21,499.11,582.52Z" transform="translate(-296.71 -147.82)"/><path class="cls-2" d="M356.16,498.92l-12.67,18c-4.59,10.4,170.07,89.14,188.43,83.84,16.93-4.89,14.31-45.1,14.31-45.1Z" transform="translate(-296.71 -147.82)"/><path class="cls-2" d="M703.1,814.59l16.25,15.17c11.33,1.92,68.57-216,62.23-235.31-5.84-17.83-34-20.24-34-20.24Z" transform="translate(-296.71 -147.82)"/><path class="cls-2" d="M799.33,519" transform="translate(-296.71 -147.82)"/><path class="cls-2" d="M616.91,361.39c-11.85.86-8.65-1.86-10.39-4.47-1.33-2-9.08-4-9.16-8a48,48,0,0,1,.72-8.62c1.73-8.93,9.17-25.23,26.24-43,.74-.78,8.45-.11,10.35-1.91,8.29-7.89,19-23.52,50.28-34.07,8.31,10.61,19.94,20.64,10.82,30.85-10.38,11.63-13.3,24-32.34,35.79C646,336.18,629.44,350.93,616.91,361.39Z" transform="translate(-296.71 -147.82)"/><path class="cls-2" d="M651.89,427.85a261.22,261.22,0,0,1-34.22-45.62c-11.24-19.06-25.55-33.35-17.66-43.8,4-5.27,20.6-12,27.58-12,7.69,13.61,9.34,28.15,17.39,44.56,8.23,16.73,15.35,32.56,21.5,47.2Z" transform="translate(-296.71 -147.82)"/><path class="cls-2" d="M663.18,441a68.29,68.29,0,0,0-10.34-13.78l13.48-8.91a14.63,14.63,0,0,0,5.35,4.66,15.33,15.33,0,0,0,8.61,1.53Z" transform="translate(-296.71 -147.82)"/><path class="cls-2" d="M677,431.68l.3-6.83c5.09-.93,5.67-1.25,8.3-.92,4.17.52,10.83,1.5,12.06,3.88,1,1.85.64,4.66-.93,5.92s-4,.3-9.22-.73A77.41,77.41,0,0,0,677,431.68Z" transform="translate(-296.71 -147.82)"/><path class="cls-2" d="M692,440.2c-2.2-1.62-3.26-2.08-4.63-3.1-2.17-1.62-.18-3.23-2.15-8.63-2.38.29-9-.71-13.91,2.83a22.06,22.06,0,0,0-8.19,11.45c4.14,4.33,9,10.85,13.09,15.18,7.65,4.55,16.23,3.69,20.22-.86,2-2.33,3.86-6.76,2.09-11A11,11,0,0,0,692,440.2" transform="translate(-296.71 -147.82)"/><line class="cls-2" x1="506.31" y1="376.13" x2="505.07" y2="377.41"/><path class="cls-2" d="M803,524" transform="translate(-296.71 -147.82)"/><path class="cls-2" d="M815.83,510.77" transform="translate(-296.71 -147.82)"/><path class="cls-2" d="M815.83,510.77" transform="translate(-296.71 -147.82)"/><path class="cls-3" d="M659.3,353.17a88.66,88.66,0,0,0-17.22-38.26c-8.63-11-10.82-13.57-17.76-17.64,3.41-1.91,12-8,20.7-14.09,1.24-.86,14.08-10.07,21.46-14,2.47-1.31,7-3.47,9.27-4.42,1.2-.51,2.47-1,2.47-1,.51-.2,1.43-.56,2.58-1,.84-.32,2-.74,2.35-.86,1.05-.34,3-.64,6.39.4l29,37.86" transform="translate(-296.71 -147.82)"/><path class="cls-4" d="M663.92,479.11,597.8,429.63C620.11,358,650,302.71,676.15,270.69c16.71-20.46,36.29-29.84,48.22-30.18,25.52-.72,44.7,56.62,34.5,98.17-7.67,31.22-27.6,38-72.54,105C676.48,458.35,668.87,470.78,663.92,479.11Z" transform="translate(-296.71 -147.82)"/><path class="cls-5" d="M684.42,261.64a57.2,57.2,0,0,0-13.85,5.5c-4.46,2.52-10.48,6.76-16,9.69-.35.19-1.14.61-2.21,1.23-2.71,1.59-4.38,2.86-6.37,4.27-2.21,1.57-2.79,1.87-5.75,3.84s-7.86,5.32-15.93,11.1l5.7,3.88q12.93-11,26.06-20.57l.72-.52Q670.46,270.16,684.42,261.64Z" transform="translate(-296.71 -147.82)"/><path class="cls-6" d="M651,502.74l-79.67-39.06a28.18,28.18,0,0,1,4.08-15.85,23.8,23.8,0,0,1,3.15-3.94c4-4.06,12.26-13.55,26.19-35.44a176.55,176.55,0,0,0,27.36,31.08c19.49,18,33,13.11,45.48,17.43C671.64,467.1,663.38,499.88,651,502.74Z" transform="translate(-296.71 -147.82)"/><path class="cls-6" d="M581.62,567.55c-5-5.36-11.68-15.17-27.29-22.21-16.92-7.63-23.27-8.53-31.94-9,2.22-3.43,5.53-8.55,9.57-14.76,2.95-4.54,5.66-8.67,8.06-12.34,7.13-10.86,8.65-11.75,10.8-16.36a42.49,42.49,0,0,0,1.85-4.64,54.43,54.43,0,0,0,2.29-9.66c.76-5.34,4.95-20.41,12.46-31.54,3.34-4.95,10.83-14.31,25.81-21.32,11.33,6.86,24,11.89,34,20.58,10.17,8.84,20.33,17.68,34,20.59-12,18.2-26.06,37.66-42.44,57.93C606.29,540.23,593.81,554.48,581.62,567.55Z" transform="translate(-296.71 -147.82)"/><path class="cls-6" d="M728.6,527.32c-8,4-18.18.55-32.07,23.25-6.11,10-17.65,25.47-14,33.25a6.49,6.49,0,0,0,1.81,2.28l-83.13-64.91L646.09,455l54.13,43.49Z" transform="translate(-296.71 -147.82)"/><path class="cls-2" d="M724.08,427.07c-8.37,23.74-15.08,12.76-19.66,13-15.95.78-25.37-27.77-33.74-51.55-7.46-21.19-11.41-51.18-13.72-63.61,13.34-3.43,20.11,5.72,33.46,2.29,6.48,14.7,14.77,26.13,20.77,43.89C717.32,389.19,720.28,411.18,724.08,427.07Z" transform="translate(-296.71 -147.82)"/><path class="cls-2" d="M803.8,414.84a273,273,0,0,1-55.11,19.22c-22.09,5.09-40.44,14.55-48.29,3.92-4-5.36-5.49-23.22-3.37-29.89,15.68-3.32,30.43-.6,49-3.45,18.9-2.91,36.57-5,52.79-6.59Z" transform="translate(-296.71 -147.82)"/><path class="cls-2" d="M821.81,408.55a76.94,76.94,0,0,0-8,2.19,98.48,98.48,0,0,0-11.24,4.67c-1.67-5.59-3.59-11.62-5.26-17.22,1.45-.44,5.65-1.65,8.17-4.17a16.42,16.42,0,0,0,4.45-8.41Z" transform="translate(-296.71 -147.82)"/><path class="cls-2" d="M815.17,392l-6.6-2.3c.62-5.14.49-5.79,1.61-8.21,1.77-3.83,4.75-9.9,7.46-10.37,2.11-.37,4.77.77,5.52,2.64s-.93,4-3.51,8.59A76.13,76.13,0,0,0,815.17,392Z" transform="translate(-296.71 -147.82)"/><path class="cls-2" d="M829,402.55" transform="translate(-296.71 -147.82)"/><path class="cls-2" d="M828.07,380.21c-2.25,1.62-3,2.5-4.44,3.5-2.25,1.6-3.22-.78-9.12-.49-.43,2.36-3.4,8.35-1.44,14.12,2.31,6.83,6.85,9.75,8.74,11.21,5.49-2.67,13.35-5.35,18.85-8,6.78-6,8.54-14.41,5.3-19.56a10.61,10.61,0,0,0-17.89-.76" transform="translate(-296.71 -147.82)"/><line class="cls-7" x1="538.15" y1="252.4" x2="539.09" y2="253.93"/><path class="cls-7" d="M834.86,400.22" transform="translate(-296.71 -147.82)"/><path class="cls-7" d="M825.12,384.5" transform="translate(-296.71 -147.82)"/><path class="cls-2" d="M825.12,384.5" transform="translate(-296.71 -147.82)"/><path class="cls-4" d="M711.49,371c-9.22-22.32-56.8-34.22-65.79-35.3l47.49-52.48,42.73,20.83" transform="translate(-296.71 -147.82)"/><path class="cls-5" d="M610.44,416.23a27.31,27.31,0,0,1-3.19-3.65,26.61,26.61,0,0,1-2.48-4.13c3.06-8.84,6.45-18,10.21-27.41,4.19-10.49,8.5-20.44,12.84-29.83a316,316,0,0,0-17.38,65Z" transform="translate(-296.71 -147.82)"/><polygon class="cls-5" points="369.77 193.15 356.94 189.54 391.42 128.5 393.69 129.26 369.77 193.15"/><polygon class="cls-8" points="417.28 229.87 414.78 223.21 430.3 179.53 430.3 179.53 417.28 229.87"/><path class="cls-9" d="M652.56,489c-2.53,11.37-34.44,32.9-40.45,43.46" transform="translate(-296.71 -147.82)"/><path class="cls-2" d="M802.83,256.23c-3.28.25-4.17-3-9.81-4.63a19.54,19.54,0,0,0-11,0c-10.55,3.17-16.07,15.4-16,18.1,0,.17,0,.49.22.6,1.4.76-2.91,2.68-5.74,4.56-.73.48-3.51-.95-12.86-6.66-16.27-10-7-26-10.73-29.26-.09-.08-6.92,11.13-6.92,10.78,0-4.22,12.43-22.12,14.33-26.34,2-4.54-4.94-8-7.82-15.62-4.56-12.08,2.36-31.45,13.83-39.58a64,64,0,0,1,9.33-8.21,41.14,41.14,0,0,1,15.42-6.07c7.83-1.35,13.89.18,19.61,1.62a57.05,57.05,0,0,1,5.5,1.67,28.13,28.13,0,0,1,16,11.87c2.25,3.64,4.51,7.29,4.11,12.56-.45,5.95-3.3,13.29-1.35,15.9,1.46,2,1.8,4.07,3,7.19.25.69,7,10.23,3.51,13.32a26.88,26.88,0,0,1-4.85,2.14c-4.78,1.73-2,4.88-1.41,7.34.85,3.67-1.52,11.07-4.44,15.88C810.61,250,807.19,255.89,802.83,256.23Z" transform="translate(-296.71 -147.82)"/><path class="cls-4" d="M757.33,293l-30.51-49.78,7-7.93Q745,246.8,757.13,258.61c7.83,7.58,11.29,10.92,18.92,17.87,0,9-8.73,3.17-12.23,12.9C761.93,294.63,758.28,291.5,757.33,293Z" transform="translate(-296.71 -147.82)"/><path class="cls-6" d="M786.56,216.22c-3.44-14.37-8.67-24.95-13.56-24.78-2.35.09-5.83,4.06-12.78,12a57,57,0,0,0-4.11,5c-5.17,7.58-4.1,12.31-6.78,13.15-3.56,1.13-9.51-6-12.25-12.46a26.27,26.27,0,0,1-2-11.79,55.59,55.59,0,0,1,2.33-18.94A42.82,42.82,0,0,1,746,162.67h56.17c-4.9,3.32-11.93,9.36-15.1,18.88a43.4,43.4,0,0,0-1.85,10.78A87.22,87.22,0,0,0,786.56,216.22Z" transform="translate(-296.71 -147.82)"/><path class="cls-1" d="M843.56,161.06c-14.71,13.86-26,16.3-33.86,15.75s-12-4.48-22.05-3.15c-7.66,1-10.23,3.86-18.23,4.67A41.12,41.12,0,0,1,751.5,176c-3.57,1.85-11.91,5.9-13.67,3.75-.38-.47-.82-1.68,4.09-10.75,2.58-4.77,4.93-8.55,6.57-11.07,7-4.74,17.09-9.89,29.41-10.1,10.59-.18,16.57,3.3,32.51,7.5A197.52,197.52,0,0,0,843.56,161.06Z" transform="translate(-296.71 -147.82)"/><path class="cls-5" d="M554.39,481.83l-2.18,7.69a132.28,132.28,0,0,1,41-64.73l-2.68,2.54a68.15,68.15,0,0,0-36.17,54.5Z" transform="translate(-296.71 -147.82)"/><path class="cls-10" d="M752.26,589.33a49.83,49.83,0,0,0-12.65,28,254.64,254.64,0,0,0-5.12,31.83l-.29,1.19-.26,1a10,10,0,0,0-.31,1.27,1.62,1.62,0,0,0,0,.18c0,.14,0,.17,0,.23a.43.43,0,0,1-.13.24,1.82,1.82,0,0,0-.21.85s-.09.38-.28,1.14c-.06.26-.13.53-.2.8,0,0-.42,1.72-.43,1.78l-.31,1.25c-.41,1.65-28.12,136-24.6,136.77,2.48.51,20.34-64.75,28.73-116.22,1.11-6.81,4.49-28.33,10-58.34C748.68,607.63,750.85,596.46,752.26,589.33Z" transform="translate(-296.71 -147.82)"/><line x1="437.62" y1="502.52" x2="438.13" y2="499.91"/></svg>